<mxfile host="app.diagrams.net" modified="2022-01-04T07:48:20.103Z" agent="5.0 (Macintosh; Intel Mac OS X 10_15_7) AppleWebKit/537.36 (KHTML, like Gecko) Chrome/96.0.4664.110 Safari/537.36" etag="asbDkkkJHLIkQ-I8nGfo" version="15.5.9" type="github">
  <diagram id="hG3X7xYnrm75QbP1ADFN" name="Page-1">
    <mxGraphModel dx="1425" dy="796" grid="1" gridSize="10" guides="1" tooltips="1" connect="1" arrows="1" fold="1" page="1" pageScale="1" pageWidth="850" pageHeight="1100" math="0" shadow="0">
      <root>
        <mxCell id="0" />
        <mxCell id="1" parent="0" />
        <mxCell id="aTwtB15tp3H_7MuXPrfV-50" style="edgeStyle=orthogonalEdgeStyle;rounded=0;orthogonalLoop=1;jettySize=auto;html=1;entryX=0.5;entryY=1;entryDx=0;entryDy=0;fontSize=8;" edge="1" parent="1">
          <mxGeometry relative="1" as="geometry">
            <mxPoint x="159" y="540" as="sourcePoint" />
            <mxPoint x="159" y="510" as="targetPoint" />
          </mxGeometry>
        </mxCell>
        <mxCell id="aTwtB15tp3H_7MuXPrfV-46" value="" style="rounded=1;whiteSpace=wrap;html=1;fontSize=8;fillColor=#FFFFFF;" vertex="1" parent="1">
          <mxGeometry x="20" y="540" width="280" height="60" as="geometry" />
        </mxCell>
        <mxCell id="aTwtB15tp3H_7MuXPrfV-34" value="" style="rounded=1;whiteSpace=wrap;html=1;fontSize=8;fillColor=#FFFFFF;dashed=1;" vertex="1" parent="1">
          <mxGeometry x="126" y="545" width="65" height="50" as="geometry" />
        </mxCell>
        <mxCell id="aTwtB15tp3H_7MuXPrfV-3" value="&lt;font style=&quot;font-size: 8px&quot;&gt;user sequence&lt;/font&gt;" style="text;html=1;strokeColor=none;fillColor=none;align=center;verticalAlign=middle;whiteSpace=wrap;rounded=0;" vertex="1" parent="1">
          <mxGeometry x="118.75" y="591" width="82.5" height="30" as="geometry" />
        </mxCell>
        <mxCell id="aTwtB15tp3H_7MuXPrfV-10" value="" style="group" vertex="1" connectable="0" parent="1">
          <mxGeometry x="135" y="550" width="10" height="40" as="geometry" />
        </mxCell>
        <mxCell id="aTwtB15tp3H_7MuXPrfV-5" value="" style="whiteSpace=wrap;html=1;aspect=fixed;fontSize=8;fillColor=#B3B3B3;" vertex="1" parent="aTwtB15tp3H_7MuXPrfV-10">
          <mxGeometry width="10" height="10" as="geometry" />
        </mxCell>
        <mxCell id="aTwtB15tp3H_7MuXPrfV-6" value="" style="whiteSpace=wrap;html=1;aspect=fixed;fontSize=8;" vertex="1" parent="aTwtB15tp3H_7MuXPrfV-10">
          <mxGeometry y="10" width="10" height="10" as="geometry" />
        </mxCell>
        <mxCell id="aTwtB15tp3H_7MuXPrfV-7" value="" style="whiteSpace=wrap;html=1;aspect=fixed;fontSize=8;fillColor=#B3B3B3;" vertex="1" parent="aTwtB15tp3H_7MuXPrfV-10">
          <mxGeometry y="20" width="10" height="10" as="geometry" />
        </mxCell>
        <mxCell id="aTwtB15tp3H_7MuXPrfV-8" value="" style="whiteSpace=wrap;html=1;aspect=fixed;fontSize=8;" vertex="1" parent="aTwtB15tp3H_7MuXPrfV-10">
          <mxGeometry y="30" width="10" height="10" as="geometry" />
        </mxCell>
        <mxCell id="aTwtB15tp3H_7MuXPrfV-14" value="" style="group" vertex="1" connectable="0" parent="1">
          <mxGeometry x="155" y="550" width="10" height="40" as="geometry" />
        </mxCell>
        <mxCell id="aTwtB15tp3H_7MuXPrfV-15" value="" style="whiteSpace=wrap;html=1;aspect=fixed;fontSize=8;fillColor=#B3B3B3;" vertex="1" parent="aTwtB15tp3H_7MuXPrfV-14">
          <mxGeometry width="10" height="10" as="geometry" />
        </mxCell>
        <mxCell id="aTwtB15tp3H_7MuXPrfV-16" value="" style="whiteSpace=wrap;html=1;aspect=fixed;fontSize=8;" vertex="1" parent="aTwtB15tp3H_7MuXPrfV-14">
          <mxGeometry y="10" width="10" height="10" as="geometry" />
        </mxCell>
        <mxCell id="aTwtB15tp3H_7MuXPrfV-17" value="" style="whiteSpace=wrap;html=1;aspect=fixed;fontSize=8;fillColor=#B3B3B3;" vertex="1" parent="aTwtB15tp3H_7MuXPrfV-14">
          <mxGeometry y="20" width="10" height="10" as="geometry" />
        </mxCell>
        <mxCell id="aTwtB15tp3H_7MuXPrfV-18" value="" style="whiteSpace=wrap;html=1;aspect=fixed;fontSize=8;" vertex="1" parent="aTwtB15tp3H_7MuXPrfV-14">
          <mxGeometry y="30" width="10" height="10" as="geometry" />
        </mxCell>
        <mxCell id="aTwtB15tp3H_7MuXPrfV-19" value="" style="group" vertex="1" connectable="0" parent="1">
          <mxGeometry x="175" y="550" width="10" height="40" as="geometry" />
        </mxCell>
        <mxCell id="aTwtB15tp3H_7MuXPrfV-20" value="" style="whiteSpace=wrap;html=1;aspect=fixed;fontSize=8;fillColor=#B3B3B3;" vertex="1" parent="aTwtB15tp3H_7MuXPrfV-19">
          <mxGeometry width="10" height="10" as="geometry" />
        </mxCell>
        <mxCell id="aTwtB15tp3H_7MuXPrfV-21" value="" style="whiteSpace=wrap;html=1;aspect=fixed;fontSize=8;" vertex="1" parent="aTwtB15tp3H_7MuXPrfV-19">
          <mxGeometry y="10" width="10" height="10" as="geometry" />
        </mxCell>
        <mxCell id="aTwtB15tp3H_7MuXPrfV-22" value="" style="whiteSpace=wrap;html=1;aspect=fixed;fontSize=8;fillColor=#B3B3B3;" vertex="1" parent="aTwtB15tp3H_7MuXPrfV-19">
          <mxGeometry y="20" width="10" height="10" as="geometry" />
        </mxCell>
        <mxCell id="aTwtB15tp3H_7MuXPrfV-23" value="" style="whiteSpace=wrap;html=1;aspect=fixed;fontSize=8;" vertex="1" parent="aTwtB15tp3H_7MuXPrfV-19">
          <mxGeometry y="30" width="10" height="10" as="geometry" />
        </mxCell>
        <mxCell id="aTwtB15tp3H_7MuXPrfV-35" value="" style="rounded=1;whiteSpace=wrap;html=1;dashed=1;fontSize=8;fillColor=#FFFFFF;" vertex="1" parent="1">
          <mxGeometry x="30" y="550" width="80" height="40" as="geometry" />
        </mxCell>
        <mxCell id="aTwtB15tp3H_7MuXPrfV-36" value="&lt;font style=&quot;font-size: 8px&quot;&gt;user basic&lt;/font&gt;" style="text;html=1;strokeColor=none;fillColor=none;align=center;verticalAlign=middle;whiteSpace=wrap;rounded=0;" vertex="1" parent="1">
          <mxGeometry x="27.75" y="592" width="82.5" height="30" as="geometry" />
        </mxCell>
        <mxCell id="aTwtB15tp3H_7MuXPrfV-37" value="" style="ellipse;whiteSpace=wrap;html=1;aspect=fixed;fontSize=8;fillColor=#CCCCCC;" vertex="1" parent="1">
          <mxGeometry x="35" y="560" width="20" height="20" as="geometry" />
        </mxCell>
        <mxCell id="aTwtB15tp3H_7MuXPrfV-39" value="" style="ellipse;whiteSpace=wrap;html=1;aspect=fixed;fontSize=8;fillColor=#CCCCCC;" vertex="1" parent="1">
          <mxGeometry x="60" y="560" width="20" height="20" as="geometry" />
        </mxCell>
        <mxCell id="aTwtB15tp3H_7MuXPrfV-40" value="" style="ellipse;whiteSpace=wrap;html=1;aspect=fixed;fontSize=8;fillColor=#CCCCCC;" vertex="1" parent="1">
          <mxGeometry x="84" y="560" width="20" height="20" as="geometry" />
        </mxCell>
        <mxCell id="aTwtB15tp3H_7MuXPrfV-41" value="" style="rounded=1;whiteSpace=wrap;html=1;dashed=1;fontSize=8;fillColor=#FFFFFF;" vertex="1" parent="1">
          <mxGeometry x="208" y="550" width="80" height="40" as="geometry" />
        </mxCell>
        <mxCell id="aTwtB15tp3H_7MuXPrfV-42" value="" style="ellipse;whiteSpace=wrap;html=1;aspect=fixed;fontSize=8;fillColor=#CCCCCC;" vertex="1" parent="1">
          <mxGeometry x="213" y="560" width="20" height="20" as="geometry" />
        </mxCell>
        <mxCell id="aTwtB15tp3H_7MuXPrfV-43" value="" style="ellipse;whiteSpace=wrap;html=1;aspect=fixed;fontSize=8;fillColor=#CCCCCC;" vertex="1" parent="1">
          <mxGeometry x="238" y="560" width="20" height="20" as="geometry" />
        </mxCell>
        <mxCell id="aTwtB15tp3H_7MuXPrfV-44" value="" style="ellipse;whiteSpace=wrap;html=1;aspect=fixed;fontSize=8;fillColor=#CCCCCC;" vertex="1" parent="1">
          <mxGeometry x="262" y="560" width="20" height="20" as="geometry" />
        </mxCell>
        <mxCell id="aTwtB15tp3H_7MuXPrfV-45" value="&lt;font style=&quot;font-size: 8px&quot;&gt;context&lt;/font&gt;" style="text;html=1;strokeColor=none;fillColor=none;align=center;verticalAlign=middle;whiteSpace=wrap;rounded=0;" vertex="1" parent="1">
          <mxGeometry x="208" y="592" width="82.5" height="30" as="geometry" />
        </mxCell>
        <mxCell id="aTwtB15tp3H_7MuXPrfV-81" style="edgeStyle=orthogonalEdgeStyle;rounded=0;orthogonalLoop=1;jettySize=auto;html=1;exitX=0.5;exitY=0;exitDx=0;exitDy=0;entryX=0.5;entryY=1;entryDx=0;entryDy=0;fontSize=8;" edge="1" parent="1" source="aTwtB15tp3H_7MuXPrfV-48" target="aTwtB15tp3H_7MuXPrfV-79">
          <mxGeometry relative="1" as="geometry" />
        </mxCell>
        <mxCell id="aTwtB15tp3H_7MuXPrfV-48" value="embedding and concat" style="rounded=1;whiteSpace=wrap;html=1;fontSize=8;fillColor=#FFFFFF;" vertex="1" parent="1">
          <mxGeometry x="58" y="480" width="204" height="30" as="geometry" />
        </mxCell>
        <mxCell id="aTwtB15tp3H_7MuXPrfV-125" style="edgeStyle=orthogonalEdgeStyle;rounded=0;orthogonalLoop=1;jettySize=auto;html=1;exitX=0.5;exitY=0;exitDx=0;exitDy=0;fontSize=24;" edge="1" parent="1">
          <mxGeometry relative="1" as="geometry">
            <mxPoint x="385" y="539" as="sourcePoint" />
            <mxPoint x="383" y="510" as="targetPoint" />
          </mxGeometry>
        </mxCell>
        <mxCell id="aTwtB15tp3H_7MuXPrfV-51" value="" style="rounded=1;whiteSpace=wrap;html=1;fontSize=8;fillColor=#FFFFFF;" vertex="1" parent="1">
          <mxGeometry x="320" y="539" width="130" height="60" as="geometry" />
        </mxCell>
        <mxCell id="aTwtB15tp3H_7MuXPrfV-53" value="" style="ellipse;whiteSpace=wrap;html=1;aspect=fixed;fontSize=8;fillColor=#CCCCCC;" vertex="1" parent="1">
          <mxGeometry x="330" y="560" width="20" height="20" as="geometry" />
        </mxCell>
        <mxCell id="aTwtB15tp3H_7MuXPrfV-54" value="" style="rounded=1;whiteSpace=wrap;html=1;dashed=1;fontSize=8;fillColor=#FFFFFF;" vertex="1" parent="1">
          <mxGeometry x="360" y="550" width="80" height="40" as="geometry" />
        </mxCell>
        <mxCell id="aTwtB15tp3H_7MuXPrfV-55" value="" style="ellipse;whiteSpace=wrap;html=1;aspect=fixed;fontSize=8;fillColor=#E6D0DE;" vertex="1" parent="1">
          <mxGeometry x="370" y="560" width="20" height="20" as="geometry" />
        </mxCell>
        <mxCell id="aTwtB15tp3H_7MuXPrfV-56" value="" style="ellipse;whiteSpace=wrap;html=1;aspect=fixed;fontSize=8;fillColor=#E6D0DE;" vertex="1" parent="1">
          <mxGeometry x="410" y="560" width="20" height="20" as="geometry" />
        </mxCell>
        <mxCell id="aTwtB15tp3H_7MuXPrfV-57" value="..." style="text;html=1;strokeColor=none;fillColor=none;align=center;verticalAlign=middle;whiteSpace=wrap;rounded=0;fontSize=8;" vertex="1" parent="1">
          <mxGeometry x="370" y="550" width="60" height="30" as="geometry" />
        </mxCell>
        <mxCell id="aTwtB15tp3H_7MuXPrfV-58" value="&lt;font style=&quot;font-size: 8px&quot;&gt;post sample&lt;/font&gt;" style="text;html=1;strokeColor=none;fillColor=none;align=center;verticalAlign=middle;whiteSpace=wrap;rounded=0;" vertex="1" parent="1">
          <mxGeometry x="343.75" y="592" width="82.5" height="30" as="geometry" />
        </mxCell>
        <mxCell id="aTwtB15tp3H_7MuXPrfV-126" style="edgeStyle=orthogonalEdgeStyle;rounded=0;orthogonalLoop=1;jettySize=auto;html=1;exitX=0.5;exitY=0;exitDx=0;exitDy=0;entryX=0.366;entryY=1.053;entryDx=0;entryDy=0;entryPerimeter=0;fontSize=24;" edge="1" parent="1" source="aTwtB15tp3H_7MuXPrfV-60" target="aTwtB15tp3H_7MuXPrfV-74">
          <mxGeometry relative="1" as="geometry" />
        </mxCell>
        <mxCell id="aTwtB15tp3H_7MuXPrfV-60" value="" style="rounded=1;whiteSpace=wrap;html=1;fontSize=8;fillColor=#FFFFFF;" vertex="1" parent="1">
          <mxGeometry x="470" y="538" width="130" height="60" as="geometry" />
        </mxCell>
        <mxCell id="aTwtB15tp3H_7MuXPrfV-61" value="" style="ellipse;whiteSpace=wrap;html=1;aspect=fixed;fontSize=8;fillColor=#CCCCCC;" vertex="1" parent="1">
          <mxGeometry x="480" y="558" width="20" height="20" as="geometry" />
        </mxCell>
        <mxCell id="aTwtB15tp3H_7MuXPrfV-62" value="" style="rounded=1;whiteSpace=wrap;html=1;dashed=1;fontSize=8;fillColor=#FFFFFF;" vertex="1" parent="1">
          <mxGeometry x="510" y="548" width="80" height="40" as="geometry" />
        </mxCell>
        <mxCell id="aTwtB15tp3H_7MuXPrfV-63" value="" style="ellipse;whiteSpace=wrap;html=1;aspect=fixed;fontSize=8;fillColor=#E6D0DE;" vertex="1" parent="1">
          <mxGeometry x="520" y="558" width="20" height="20" as="geometry" />
        </mxCell>
        <mxCell id="aTwtB15tp3H_7MuXPrfV-64" value="" style="ellipse;whiteSpace=wrap;html=1;aspect=fixed;fontSize=8;fillColor=#E6D0DE;" vertex="1" parent="1">
          <mxGeometry x="560" y="558" width="20" height="20" as="geometry" />
        </mxCell>
        <mxCell id="aTwtB15tp3H_7MuXPrfV-65" value="..." style="text;html=1;strokeColor=none;fillColor=none;align=center;verticalAlign=middle;whiteSpace=wrap;rounded=0;fontSize=8;" vertex="1" parent="1">
          <mxGeometry x="520" y="548" width="60" height="30" as="geometry" />
        </mxCell>
        <mxCell id="aTwtB15tp3H_7MuXPrfV-66" value="&lt;font style=&quot;font-size: 8px&quot;&gt;video sample&lt;/font&gt;" style="text;html=1;strokeColor=none;fillColor=none;align=center;verticalAlign=middle;whiteSpace=wrap;rounded=0;" vertex="1" parent="1">
          <mxGeometry x="493.75" y="591" width="82.5" height="30" as="geometry" />
        </mxCell>
        <mxCell id="aTwtB15tp3H_7MuXPrfV-127" style="edgeStyle=orthogonalEdgeStyle;rounded=0;orthogonalLoop=1;jettySize=auto;html=1;exitX=0.5;exitY=0;exitDx=0;exitDy=0;entryX=0.636;entryY=1.053;entryDx=0;entryDy=0;entryPerimeter=0;fontSize=24;" edge="1" parent="1" source="aTwtB15tp3H_7MuXPrfV-67" target="aTwtB15tp3H_7MuXPrfV-74">
          <mxGeometry relative="1" as="geometry" />
        </mxCell>
        <mxCell id="aTwtB15tp3H_7MuXPrfV-67" value="" style="rounded=1;whiteSpace=wrap;html=1;fontSize=8;fillColor=#FFFFFF;" vertex="1" parent="1">
          <mxGeometry x="620" y="540" width="130" height="58" as="geometry" />
        </mxCell>
        <mxCell id="aTwtB15tp3H_7MuXPrfV-68" value="" style="ellipse;whiteSpace=wrap;html=1;aspect=fixed;fontSize=8;fillColor=#CCCCCC;" vertex="1" parent="1">
          <mxGeometry x="630" y="558" width="20" height="20" as="geometry" />
        </mxCell>
        <mxCell id="aTwtB15tp3H_7MuXPrfV-69" value="" style="rounded=1;whiteSpace=wrap;html=1;dashed=1;fontSize=8;fillColor=#FFFFFF;" vertex="1" parent="1">
          <mxGeometry x="660" y="548" width="80" height="40" as="geometry" />
        </mxCell>
        <mxCell id="aTwtB15tp3H_7MuXPrfV-70" value="" style="ellipse;whiteSpace=wrap;html=1;aspect=fixed;fontSize=8;fillColor=#E6D0DE;" vertex="1" parent="1">
          <mxGeometry x="670" y="558" width="20" height="20" as="geometry" />
        </mxCell>
        <mxCell id="aTwtB15tp3H_7MuXPrfV-71" value="" style="ellipse;whiteSpace=wrap;html=1;aspect=fixed;fontSize=8;fillColor=#E6D0DE;" vertex="1" parent="1">
          <mxGeometry x="710" y="558" width="20" height="20" as="geometry" />
        </mxCell>
        <mxCell id="aTwtB15tp3H_7MuXPrfV-72" value="..." style="text;html=1;strokeColor=none;fillColor=none;align=center;verticalAlign=middle;whiteSpace=wrap;rounded=0;fontSize=8;" vertex="1" parent="1">
          <mxGeometry x="670" y="548" width="60" height="30" as="geometry" />
        </mxCell>
        <mxCell id="aTwtB15tp3H_7MuXPrfV-73" value="&lt;font style=&quot;font-size: 8px&quot;&gt;show sample&lt;/font&gt;" style="text;html=1;strokeColor=none;fillColor=none;align=center;verticalAlign=middle;whiteSpace=wrap;rounded=0;" vertex="1" parent="1">
          <mxGeometry x="643.75" y="591" width="82.5" height="30" as="geometry" />
        </mxCell>
        <mxCell id="aTwtB15tp3H_7MuXPrfV-83" style="edgeStyle=orthogonalEdgeStyle;rounded=0;orthogonalLoop=1;jettySize=auto;html=1;exitX=0.5;exitY=0;exitDx=0;exitDy=0;entryX=0.458;entryY=1;entryDx=0;entryDy=0;entryPerimeter=0;fontSize=8;" edge="1" parent="1">
          <mxGeometry relative="1" as="geometry">
            <mxPoint x="529" y="480" as="sourcePoint" />
            <mxPoint x="533.96" y="450" as="targetPoint" />
          </mxGeometry>
        </mxCell>
        <mxCell id="aTwtB15tp3H_7MuXPrfV-74" value="embedding" style="rounded=1;whiteSpace=wrap;html=1;fontSize=8;fillColor=#FFFFFF;" vertex="1" parent="1">
          <mxGeometry x="330" y="480" width="560" height="30" as="geometry" />
        </mxCell>
        <mxCell id="aTwtB15tp3H_7MuXPrfV-79" value="MLP" style="rounded=1;whiteSpace=wrap;html=1;fontSize=8;fillColor=#FFFFFF;" vertex="1" parent="1">
          <mxGeometry x="98" y="420" width="120" height="30" as="geometry" />
        </mxCell>
        <mxCell id="aTwtB15tp3H_7MuXPrfV-96" style="edgeStyle=orthogonalEdgeStyle;rounded=0;orthogonalLoop=1;jettySize=auto;html=1;exitX=0.5;exitY=0;exitDx=0;exitDy=0;entryX=0.5;entryY=1;entryDx=0;entryDy=0;fontSize=18;" edge="1" parent="1" source="aTwtB15tp3H_7MuXPrfV-82" target="aTwtB15tp3H_7MuXPrfV-93">
          <mxGeometry relative="1" as="geometry" />
        </mxCell>
        <mxCell id="aTwtB15tp3H_7MuXPrfV-82" value="MLP" style="rounded=1;whiteSpace=wrap;html=1;fontSize=8;fillColor=#FFFFFF;" vertex="1" parent="1">
          <mxGeometry x="472" y="420" width="120" height="30" as="geometry" />
        </mxCell>
        <mxCell id="aTwtB15tp3H_7MuXPrfV-95" style="edgeStyle=orthogonalEdgeStyle;rounded=0;orthogonalLoop=1;jettySize=auto;html=1;exitX=0.5;exitY=0;exitDx=0;exitDy=0;entryX=0.5;entryY=1;entryDx=0;entryDy=0;fontSize=18;" edge="1" parent="1" source="aTwtB15tp3H_7MuXPrfV-84" target="aTwtB15tp3H_7MuXPrfV-90">
          <mxGeometry relative="1" as="geometry" />
        </mxCell>
        <mxCell id="aTwtB15tp3H_7MuXPrfV-84" value="MLP" style="rounded=1;whiteSpace=wrap;html=1;fontSize=8;fillColor=#FFFFFF;" vertex="1" parent="1">
          <mxGeometry x="330" y="420" width="120" height="30" as="geometry" />
        </mxCell>
        <mxCell id="aTwtB15tp3H_7MuXPrfV-85" value="MLP" style="rounded=1;whiteSpace=wrap;html=1;fontSize=8;fillColor=#FFFFFF;" vertex="1" parent="1">
          <mxGeometry x="608" y="420" width="120" height="30" as="geometry" />
        </mxCell>
        <mxCell id="aTwtB15tp3H_7MuXPrfV-88" style="edgeStyle=orthogonalEdgeStyle;rounded=0;orthogonalLoop=1;jettySize=auto;html=1;exitX=0.5;exitY=0;exitDx=0;exitDy=0;entryX=0.458;entryY=1;entryDx=0;entryDy=0;entryPerimeter=0;fontSize=8;" edge="1" parent="1">
          <mxGeometry relative="1" as="geometry">
            <mxPoint x="387.51999999999975" y="480" as="sourcePoint" />
            <mxPoint x="392.48000000000025" y="450" as="targetPoint" />
          </mxGeometry>
        </mxCell>
        <mxCell id="aTwtB15tp3H_7MuXPrfV-89" style="edgeStyle=orthogonalEdgeStyle;rounded=0;orthogonalLoop=1;jettySize=auto;html=1;exitX=0.5;exitY=0;exitDx=0;exitDy=0;entryX=0.458;entryY=1;entryDx=0;entryDy=0;entryPerimeter=0;fontSize=8;" edge="1" parent="1">
          <mxGeometry relative="1" as="geometry">
            <mxPoint x="659.9999999999998" y="480" as="sourcePoint" />
            <mxPoint x="664.9600000000005" y="450" as="targetPoint" />
          </mxGeometry>
        </mxCell>
        <mxCell id="aTwtB15tp3H_7MuXPrfV-90" value="&lt;h1 class=&quot;exp-title-h1&quot; title=&quot;word怎么打钩打叉和怎么输入“√ ”和 “×”？&quot; style=&quot;margin: 0px ; padding: 0px ; color: rgb(51 , 51 , 51) ; font-weight: 400 ; background-color: rgb(255 , 255 , 255)&quot;&gt;&lt;font style=&quot;font-size: 18px&quot;&gt;×&lt;/font&gt;&lt;/h1&gt;" style="ellipse;whiteSpace=wrap;html=1;aspect=fixed;fontSize=8;fillColor=#FFFFFF;" vertex="1" parent="1">
          <mxGeometry x="375" y="300" width="30" height="30" as="geometry" />
        </mxCell>
        <mxCell id="aTwtB15tp3H_7MuXPrfV-93" value="&lt;h1 class=&quot;exp-title-h1&quot; title=&quot;word怎么打钩打叉和怎么输入“√ ”和 “×”？&quot; style=&quot;margin: 0px ; padding: 0px ; color: rgb(51 , 51 , 51) ; font-weight: 400 ; background-color: rgb(255 , 255 , 255)&quot;&gt;&lt;font style=&quot;font-size: 18px&quot;&gt;×&lt;/font&gt;&lt;/h1&gt;" style="ellipse;whiteSpace=wrap;html=1;aspect=fixed;fontSize=8;fillColor=#FFFFFF;" vertex="1" parent="1">
          <mxGeometry x="517" y="300" width="30" height="30" as="geometry" />
        </mxCell>
        <mxCell id="aTwtB15tp3H_7MuXPrfV-94" value="&lt;h1 class=&quot;exp-title-h1&quot; title=&quot;word怎么打钩打叉和怎么输入“√ ”和 “×”？&quot; style=&quot;margin: 0px ; padding: 0px ; color: rgb(51 , 51 , 51) ; font-weight: 400 ; background-color: rgb(255 , 255 , 255)&quot;&gt;&lt;font style=&quot;font-size: 18px&quot;&gt;×&lt;/font&gt;&lt;/h1&gt;" style="ellipse;whiteSpace=wrap;html=1;aspect=fixed;fontSize=8;fillColor=#FFFFFF;" vertex="1" parent="1">
          <mxGeometry x="653" y="300" width="30" height="30" as="geometry" />
        </mxCell>
        <mxCell id="aTwtB15tp3H_7MuXPrfV-97" style="edgeStyle=orthogonalEdgeStyle;rounded=0;orthogonalLoop=1;jettySize=auto;html=1;exitX=0.5;exitY=0;exitDx=0;exitDy=0;entryX=0.5;entryY=1;entryDx=0;entryDy=0;fontSize=18;" edge="1" parent="1">
          <mxGeometry relative="1" as="geometry">
            <mxPoint x="667.6600000000002" y="420" as="sourcePoint" />
            <mxPoint x="667.6600000000002" y="330.0000000000001" as="targetPoint" />
          </mxGeometry>
        </mxCell>
        <mxCell id="aTwtB15tp3H_7MuXPrfV-99" value="" style="endArrow=classic;html=1;rounded=0;fontSize=18;entryX=0.5;entryY=1;entryDx=0;entryDy=0;exitX=0.5;exitY=0;exitDx=0;exitDy=0;" edge="1" parent="1" source="aTwtB15tp3H_7MuXPrfV-79" target="aTwtB15tp3H_7MuXPrfV-90">
          <mxGeometry width="50" height="50" relative="1" as="geometry">
            <mxPoint x="218" y="370" as="sourcePoint" />
            <mxPoint x="268" y="320" as="targetPoint" />
          </mxGeometry>
        </mxCell>
        <mxCell id="aTwtB15tp3H_7MuXPrfV-100" value="" style="endArrow=classic;html=1;rounded=0;fontSize=18;entryX=0.5;entryY=1;entryDx=0;entryDy=0;" edge="1" parent="1" target="aTwtB15tp3H_7MuXPrfV-93">
          <mxGeometry width="50" height="50" relative="1" as="geometry">
            <mxPoint x="158" y="420" as="sourcePoint" />
            <mxPoint x="400" y="340.0000000000001" as="targetPoint" />
          </mxGeometry>
        </mxCell>
        <mxCell id="aTwtB15tp3H_7MuXPrfV-101" value="" style="endArrow=classic;html=1;rounded=0;fontSize=18;entryX=0.5;entryY=1;entryDx=0;entryDy=0;" edge="1" parent="1" target="aTwtB15tp3H_7MuXPrfV-94">
          <mxGeometry width="50" height="50" relative="1" as="geometry">
            <mxPoint x="160" y="420" as="sourcePoint" />
            <mxPoint x="542.0000000000002" y="340.0000000000001" as="targetPoint" />
          </mxGeometry>
        </mxCell>
        <mxCell id="aTwtB15tp3H_7MuXPrfV-136" style="edgeStyle=orthogonalEdgeStyle;rounded=0;orthogonalLoop=1;jettySize=auto;html=1;exitX=0.5;exitY=0;exitDx=0;exitDy=0;entryX=0.088;entryY=1.064;entryDx=0;entryDy=0;entryPerimeter=0;fontSize=24;" edge="1" parent="1" source="aTwtB15tp3H_7MuXPrfV-103" target="aTwtB15tp3H_7MuXPrfV-109">
          <mxGeometry relative="1" as="geometry" />
        </mxCell>
        <mxCell id="aTwtB15tp3H_7MuXPrfV-103" value="loss_p" style="rounded=1;whiteSpace=wrap;html=1;fontSize=8;fillColor=#FFFFFF;" vertex="1" parent="1">
          <mxGeometry x="330" y="239" width="120" height="30" as="geometry" />
        </mxCell>
        <mxCell id="aTwtB15tp3H_7MuXPrfV-104" value="loss_v" style="rounded=1;whiteSpace=wrap;html=1;fontSize=8;fillColor=#FFFFFF;" vertex="1" parent="1">
          <mxGeometry x="470" y="240" width="120" height="30" as="geometry" />
        </mxCell>
        <mxCell id="aTwtB15tp3H_7MuXPrfV-105" value="loss_s" style="rounded=1;whiteSpace=wrap;html=1;fontSize=8;fillColor=#FFFFFF;" vertex="1" parent="1">
          <mxGeometry x="606.25" y="240" width="120" height="30" as="geometry" />
        </mxCell>
        <mxCell id="aTwtB15tp3H_7MuXPrfV-106" value="" style="endArrow=classic;html=1;rounded=0;fontSize=18;exitX=0.5;exitY=0;exitDx=0;exitDy=0;" edge="1" parent="1" source="aTwtB15tp3H_7MuXPrfV-90">
          <mxGeometry width="50" height="50" relative="1" as="geometry">
            <mxPoint x="600" y="380" as="sourcePoint" />
            <mxPoint x="390" y="270" as="targetPoint" />
          </mxGeometry>
        </mxCell>
        <mxCell id="aTwtB15tp3H_7MuXPrfV-107" value="" style="endArrow=classic;html=1;rounded=0;fontSize=18;exitX=0.5;exitY=0;exitDx=0;exitDy=0;" edge="1" parent="1" source="aTwtB15tp3H_7MuXPrfV-93">
          <mxGeometry width="50" height="50" relative="1" as="geometry">
            <mxPoint x="400" y="310" as="sourcePoint" />
            <mxPoint x="532" y="270" as="targetPoint" />
          </mxGeometry>
        </mxCell>
        <mxCell id="aTwtB15tp3H_7MuXPrfV-108" value="" style="endArrow=classic;html=1;rounded=0;fontSize=18;exitX=0.5;exitY=0;exitDx=0;exitDy=0;" edge="1" parent="1" source="aTwtB15tp3H_7MuXPrfV-94">
          <mxGeometry width="50" height="50" relative="1" as="geometry">
            <mxPoint x="542.0000000000002" y="310" as="sourcePoint" />
            <mxPoint x="668" y="270" as="targetPoint" />
          </mxGeometry>
        </mxCell>
        <mxCell id="aTwtB15tp3H_7MuXPrfV-114" style="edgeStyle=orthogonalEdgeStyle;rounded=0;orthogonalLoop=1;jettySize=auto;html=1;exitX=0.5;exitY=0;exitDx=0;exitDy=0;entryX=0.5;entryY=1;entryDx=0;entryDy=0;fontSize=18;" edge="1" parent="1" source="aTwtB15tp3H_7MuXPrfV-109" target="aTwtB15tp3H_7MuXPrfV-113">
          <mxGeometry relative="1" as="geometry" />
        </mxCell>
        <mxCell id="aTwtB15tp3H_7MuXPrfV-109" value="Type Mask" style="rounded=1;whiteSpace=wrap;html=1;fontSize=8;fillColor=#FFFFFF;" vertex="1" parent="1">
          <mxGeometry x="345" y="170" width="515" height="30" as="geometry" />
        </mxCell>
        <mxCell id="aTwtB15tp3H_7MuXPrfV-111" value="" style="endArrow=classic;html=1;rounded=0;fontSize=18;entryX=0.12;entryY=1.064;entryDx=0;entryDy=0;entryPerimeter=0;" edge="1" parent="1">
          <mxGeometry width="50" height="50" relative="1" as="geometry">
            <mxPoint x="534.6599999999997" y="240" as="sourcePoint" />
            <mxPoint x="535.0600000000001" y="201.9200000000002" as="targetPoint" />
          </mxGeometry>
        </mxCell>
        <mxCell id="aTwtB15tp3H_7MuXPrfV-112" value="" style="endArrow=classic;html=1;rounded=0;fontSize=18;entryX=0.12;entryY=1.064;entryDx=0;entryDy=0;entryPerimeter=0;" edge="1" parent="1">
          <mxGeometry width="50" height="50" relative="1" as="geometry">
            <mxPoint x="667.6599999999999" y="240" as="sourcePoint" />
            <mxPoint x="668.0600000000002" y="201.9200000000002" as="targetPoint" />
          </mxGeometry>
        </mxCell>
        <mxCell id="aTwtB15tp3H_7MuXPrfV-113" value="loss fusion" style="rounded=1;whiteSpace=wrap;html=1;fontSize=8;fillColor=#FFFFFF;" vertex="1" parent="1">
          <mxGeometry x="345" y="110" width="505" height="30" as="geometry" />
        </mxCell>
        <mxCell id="aTwtB15tp3H_7MuXPrfV-128" style="edgeStyle=orthogonalEdgeStyle;rounded=0;orthogonalLoop=1;jettySize=auto;html=1;exitX=0.5;exitY=0;exitDx=0;exitDy=0;entryX=0.902;entryY=1.053;entryDx=0;entryDy=0;entryPerimeter=0;fontSize=24;" edge="1" parent="1" source="aTwtB15tp3H_7MuXPrfV-115" target="aTwtB15tp3H_7MuXPrfV-74">
          <mxGeometry relative="1" as="geometry" />
        </mxCell>
        <mxCell id="aTwtB15tp3H_7MuXPrfV-115" value="" style="rounded=1;whiteSpace=wrap;html=1;fontSize=8;fillColor=#FFFFFF;" vertex="1" parent="1">
          <mxGeometry x="770" y="540" width="130" height="58" as="geometry" />
        </mxCell>
        <mxCell id="aTwtB15tp3H_7MuXPrfV-116" value="&lt;font style=&quot;font-size: 8px&quot;&gt;post-circle alignment&lt;/font&gt;" style="text;html=1;strokeColor=none;fillColor=none;align=center;verticalAlign=middle;whiteSpace=wrap;rounded=0;" vertex="1" parent="1">
          <mxGeometry x="793.75" y="596" width="82.5" height="30" as="geometry" />
        </mxCell>
        <mxCell id="aTwtB15tp3H_7MuXPrfV-117" value="p1" style="ellipse;whiteSpace=wrap;html=1;aspect=fixed;fontSize=8;fillColor=#CCCCCC;" vertex="1" parent="1">
          <mxGeometry x="793.75" y="545" width="20" height="20" as="geometry" />
        </mxCell>
        <mxCell id="aTwtB15tp3H_7MuXPrfV-118" value="" style="endArrow=classic;html=1;rounded=0;fontSize=18;" edge="1" parent="1">
          <mxGeometry width="50" height="50" relative="1" as="geometry">
            <mxPoint x="819.25" y="554.66" as="sourcePoint" />
            <mxPoint x="853" y="555" as="targetPoint" />
          </mxGeometry>
        </mxCell>
        <mxCell id="aTwtB15tp3H_7MuXPrfV-119" value="c1" style="ellipse;whiteSpace=wrap;html=1;aspect=fixed;fontSize=8;fillColor=#FFD966;" vertex="1" parent="1">
          <mxGeometry x="856.25" y="545" width="20" height="20" as="geometry" />
        </mxCell>
        <mxCell id="aTwtB15tp3H_7MuXPrfV-120" value="pn" style="ellipse;whiteSpace=wrap;html=1;aspect=fixed;fontSize=8;fillColor=#CCCCCC;" vertex="1" parent="1">
          <mxGeometry x="794" y="575" width="20" height="20" as="geometry" />
        </mxCell>
        <mxCell id="aTwtB15tp3H_7MuXPrfV-121" value="cm" style="ellipse;whiteSpace=wrap;html=1;aspect=fixed;fontSize=8;fillColor=#FFD966;" vertex="1" parent="1">
          <mxGeometry x="856.25" y="575" width="20" height="20" as="geometry" />
        </mxCell>
        <mxCell id="aTwtB15tp3H_7MuXPrfV-122" value="" style="endArrow=classic;html=1;rounded=0;fontSize=18;" edge="1" parent="1">
          <mxGeometry width="50" height="50" relative="1" as="geometry">
            <mxPoint x="818.5" y="584.6599999999999" as="sourcePoint" />
            <mxPoint x="852.25" y="585" as="targetPoint" />
          </mxGeometry>
        </mxCell>
        <mxCell id="aTwtB15tp3H_7MuXPrfV-124" value="…" style="text;html=1;strokeColor=none;fillColor=none;align=center;verticalAlign=middle;whiteSpace=wrap;rounded=0;fontSize=24;" vertex="1" parent="1">
          <mxGeometry x="803" y="552" width="64" height="22" as="geometry" />
        </mxCell>
        <mxCell id="aTwtB15tp3H_7MuXPrfV-129" value="MLP" style="rounded=1;whiteSpace=wrap;html=1;fontSize=8;fillColor=#FFFFFF;" vertex="1" parent="1">
          <mxGeometry x="750" y="420" width="120" height="30" as="geometry" />
        </mxCell>
        <mxCell id="aTwtB15tp3H_7MuXPrfV-130" style="edgeStyle=orthogonalEdgeStyle;rounded=0;orthogonalLoop=1;jettySize=auto;html=1;exitX=0.5;exitY=0;exitDx=0;exitDy=0;entryX=0.458;entryY=1;entryDx=0;entryDy=0;entryPerimeter=0;fontSize=8;" edge="1" parent="1">
          <mxGeometry relative="1" as="geometry">
            <mxPoint x="807.5" y="480" as="sourcePoint" />
            <mxPoint x="812.4600000000005" y="450" as="targetPoint" />
          </mxGeometry>
        </mxCell>
        <mxCell id="aTwtB15tp3H_7MuXPrfV-135" style="edgeStyle=orthogonalEdgeStyle;rounded=0;orthogonalLoop=1;jettySize=auto;html=1;exitX=0.5;exitY=0;exitDx=0;exitDy=0;entryX=0.5;entryY=1;entryDx=0;entryDy=0;fontSize=24;" edge="1" parent="1" source="aTwtB15tp3H_7MuXPrfV-131" target="aTwtB15tp3H_7MuXPrfV-134">
          <mxGeometry relative="1" as="geometry" />
        </mxCell>
        <mxCell id="aTwtB15tp3H_7MuXPrfV-131" value="&lt;h1 class=&quot;exp-title-h1&quot; title=&quot;word怎么打钩打叉和怎么输入“√ ”和 “×”？&quot; style=&quot;margin: 0px ; padding: 0px ; color: rgb(51 , 51 , 51) ; font-weight: 400 ; background-color: rgb(255 , 255 , 255)&quot;&gt;&lt;font style=&quot;font-size: 18px&quot;&gt;×&lt;/font&gt;&lt;/h1&gt;" style="ellipse;whiteSpace=wrap;html=1;aspect=fixed;fontSize=8;fillColor=#FFFFFF;" vertex="1" parent="1">
          <mxGeometry x="794" y="302" width="30" height="30" as="geometry" />
        </mxCell>
        <mxCell id="aTwtB15tp3H_7MuXPrfV-132" style="edgeStyle=orthogonalEdgeStyle;rounded=0;orthogonalLoop=1;jettySize=auto;html=1;exitX=0.5;exitY=0;exitDx=0;exitDy=0;entryX=0.5;entryY=1;entryDx=0;entryDy=0;fontSize=18;" edge="1" parent="1">
          <mxGeometry relative="1" as="geometry">
            <mxPoint x="809.6600000000003" y="420" as="sourcePoint" />
            <mxPoint x="809.6600000000003" y="330" as="targetPoint" />
          </mxGeometry>
        </mxCell>
        <mxCell id="aTwtB15tp3H_7MuXPrfV-137" style="edgeStyle=orthogonalEdgeStyle;rounded=0;orthogonalLoop=1;jettySize=auto;html=1;exitX=0.5;exitY=0;exitDx=0;exitDy=0;entryX=0.903;entryY=1.11;entryDx=0;entryDy=0;entryPerimeter=0;fontSize=24;" edge="1" parent="1" source="aTwtB15tp3H_7MuXPrfV-134" target="aTwtB15tp3H_7MuXPrfV-109">
          <mxGeometry relative="1" as="geometry" />
        </mxCell>
        <mxCell id="aTwtB15tp3H_7MuXPrfV-134" value="loss_s" style="rounded=1;whiteSpace=wrap;html=1;fontSize=8;fillColor=#FFFFFF;" vertex="1" parent="1">
          <mxGeometry x="750" y="240" width="120" height="30" as="geometry" />
        </mxCell>
      </root>
    </mxGraphModel>
  </diagram>
</mxfile>
